<?xml version="1.0" encoding="UTF-8"?>
<svg version="1.1" xmlns="http://www.w3.org/2000/svg" width="1024" height="1024">
<path d="M0 0 C337.92 0 675.84 0 1024 0 C1024 337.92 1024 675.84 1024 1024 C686.08 1024 348.16 1024 0 1024 C0 686.08 0 348.16 0 0 Z " fill="#FFFFFF" transform="translate(0,0)"/>
<path d="M0 0 C2.64261917 1.19176943 4.9250016 2.37685283 7.375 3.875 C8.06996582 4.28282715 8.76493164 4.6906543 9.48095703 5.11083984 C11.66208322 6.39405684 13.83090729 7.69657247 16 9 C17.30099005 9.76748129 18.60304768 10.53315623 19.90625 11.296875 C21.91895322 12.47666647 23.93067839 13.65791703 25.93896484 14.84521484 C32.59683828 18.7808374 39.29731051 22.64132727 46 26.5 C54.45558207 31.37028046 62.89375657 36.26642329 71.296875 41.2265625 C80.69540883 46.77413318 90.11664216 52.2832968 99.53443909 57.79808044 C103.4661729 60.10059999 107.39566343 62.40690334 111.32421875 64.71484375 C121.48788804 70.675629 131.69961712 76.52834046 142 82.25 C150.8408504 87.16634548 159.65963955 92.12987007 168.06620556 97.76944453 C170.02202603 99.05208609 170.02202603 99.05208609 172.27060503 100.18944019 C178.48371357 103.68738456 178.48371357 103.68738456 179.83650792 107.12675202 C180.16021954 109.73322548 180.19558287 112.21108107 180.13612366 114.83717346 C180.14945801 115.8229083 180.16279236 116.80864314 180.17653078 117.82424873 C180.21007692 121.12571376 180.17932722 124.42340659 180.14868164 127.72485352 C180.1592404 130.09199967 180.17364327 132.45913135 180.19160461 134.82623291 C180.22838362 141.25414224 180.20833115 147.68072872 180.17599797 154.10861707 C180.15772754 158.12260111 180.15879131 162.13642245 180.16540337 166.15043449 C180.16649374 166.81704 180.16758411 167.4836455 180.16870753 168.17045118 C180.17101279 169.5246904 180.173365 170.87892954 180.17576366 172.23316859 C180.19624754 184.92704683 180.16236909 197.62033064 180.10934447 210.31408589 C180.06503828 221.20498972 180.06501157 232.09514863 180.09790039 242.98608398 C180.13606928 255.63639819 180.1485318 268.28628592 180.11874098 280.93663734 C180.11562241 282.28555192 180.1125302 283.63446657 180.10946465 284.98338127 C180.10793545 285.64705836 180.10640626 286.31073545 180.10483073 286.99452396 C180.09577229 291.67063276 180.10525953 296.34643069 180.12092781 301.02252388 C180.14011949 307.31601122 180.12007164 313.60817248 180.06950188 319.901474 C180.05730809 322.21336712 180.05877778 324.52537786 180.07476807 326.83724785 C180.09433879 329.98960331 180.06482782 333.13776525 180.02259827 336.28981018 C180.04834375 337.6684026 180.04834375 337.6684026 180.07460934 339.07484537 C180.00983065 341.62559815 179.88079783 343.60340667 179 346 C176.58331171 348.27044648 173.99194846 349.61886175 171 351 C170.14792969 351.52464844 169.29585937 352.04929687 168.41796875 352.58984375 C164.31616353 355.06816739 160.18778691 357.46916337 155.97265625 359.75 C131.51563717 373.03860732 107.29254123 386.76067224 83.19897461 400.6953125 C77.48476233 403.99801842 71.76194971 407.2813143 66 410.5 C58.98686507 414.42027427 52.02280559 418.42428385 45.0625 422.4375 C43.38377808 423.40345093 43.38377808 423.40345093 41.67114258 424.38891602 C36.66201143 427.2779391 31.66737501 430.18287436 26.7265625 433.1875 C25.94917725 433.65744385 25.17179199 434.1273877 24.37084961 434.61157227 C22.96215291 435.46706056 21.55884544 436.33151749 20.16235352 437.20678711 C16.69288919 439.30967126 14.07957302 440.89348883 10 440 C7.23190742 437.84446641 6.11709679 436.66722707 5.50320601 433.16922736 C5.5047249 432.06500064 5.50624378 430.96077392 5.50780869 429.82308578 C5.49586239 427.90920551 5.49586239 427.90920551 5.48367476 425.95666099 C5.49508703 424.53781584 5.50686942 423.11897362 5.51898193 421.70013428 C5.51723816 420.19525177 5.51373683 418.69037045 5.50862527 417.18549562 C5.49966315 413.04420523 5.51570565 408.90332709 5.53573751 404.76208925 C5.55298046 400.29858681 5.54716805 395.8351084 5.54412842 391.37158203 C5.54202905 383.63625309 5.55459951 375.9010589 5.57707977 368.16576385 C5.60956144 356.98179139 5.62000286 345.79788422 5.62503174 334.6138697 C5.63379041 316.46943086 5.66042152 298.32506388 5.69824219 280.18066406 C5.73494746 262.55306356 5.76326649 244.92548256 5.78027344 227.29785156 C5.78132433 226.21163607 5.78237523 225.12542057 5.78345796 224.00628945 C5.78867804 218.55717018 5.79373289 213.10805076 5.79870558 207.65893126 C5.84018544 162.43923773 5.91064945 117.21962257 6 72 C14.26461607 70.13706713 21.8928423 73.30522597 28.94700623 77.75354004 C33.01270079 80.78502523 35.46721097 83.7895664 36.67230225 88.78924561 C38.13495896 99.57626041 37.6532181 110.51254456 37.03613281 121.34741211 C36.2780624 135.94855232 36.62387392 145.63057111 45.77633667 157.41210938 C47.35200215 159.45677671 48.67634958 161.62033308 50.00390625 163.83203125 C50.85476314 165.16014254 51.70762865 166.48696915 52.5625 167.8125 C65.81271313 188.59688941 78.34597363 209.84949948 91 231 C93.87583382 227.54749953 96.27444197 224.04648184 98.5390625 220.16796875 C99.19688721 219.04769287 99.85471191 217.92741699 100.5324707 216.77319336 C100.87412262 216.18762665 101.21577454 215.60205994 101.56777954 214.99874878 C103.35516974 211.9365603 105.15600688 208.88230852 106.95703125 205.828125 C107.31026962 205.2287059 107.663508 204.6292868 108.02745056 204.01170349 C111.47007916 198.18144457 115.04576124 192.44317838 118.66015625 186.71875 C121.22971876 182.64910098 123.74312232 178.54598143 126.25 174.4375 C126.69303467 173.71175781 127.13606934 172.98601562 127.5925293 172.23828125 C130.32573561 167.75638216 133.05060846 163.26945989 135.7734375 158.78125 C136.7320166 157.20259155 136.7320166 157.20259155 137.70996094 155.59204102 C138.97233828 153.51259461 140.23343655 151.4323711 141.49316406 149.35131836 C142.35119629 147.93798218 142.35119629 147.93798218 143.2265625 146.49609375 C143.73783691 145.65232178 144.24911133 144.8085498 144.77587891 143.93920898 C146 142 146 142 147 141 C147.55618491 137.83059516 147.69758777 134.64684173 147.875 131.4375 C147.97941406 130.55513672 148.08382813 129.67277344 148.19140625 128.76367188 C148.32108462 125.73858861 148.16951382 123.80666802 147 121 C143.58636184 118.02639983 139.83065852 115.97571558 135.82128906 113.93807983 C132.99221318 112.48092562 130.26531894 110.85345042 127.51953125 109.24609375 C125.28501399 107.9745222 123.04929758 106.70505599 120.8125 105.4375 C118.34832957 104.03626011 115.88511889 102.63333659 113.421875 101.23046875 C112.80280777 100.87816193 112.18374054 100.5258551 111.5459137 100.16287231 C105.20307448 96.551226 98.88173753 92.9027849 92.5625 89.25 C84.88568292 84.81441632 77.20157787 80.39245623 69.5 76 C61.79842078 71.607543 54.11445054 67.18535429 46.4375 62.75 C33.57299009 55.31839568 20.69508292 47.90790782 7.76416016 40.59228516 C6.09969534 39.6334758 4.44834865 38.65052583 2.82568359 37.62255859 C-0.52683676 35.46988439 -0.52683676 35.46988439 -4.39599609 35.25439453 C-7.10929814 36.03129538 -9.23032226 37.04582309 -11.67578125 38.44921875 C-12.57345215 38.96025146 -13.47112305 39.47128418 -14.39599609 39.99780273 C-15.35844238 40.55540283 -16.32088867 41.11300293 -17.3125 41.6875 C-18.32650879 42.26765869 -19.34051758 42.84781738 -20.38525391 43.44555664 C-28.5756821 48.1431749 -36.7219597 52.91705665 -44.86767578 57.69165039 C-53.13304973 62.52481544 -61.47197505 67.2180922 -69.83520508 71.87939453 C-77.48439508 76.14382246 -85.09777605 80.46696658 -92.69580078 84.82177734 C-98.24859502 88.00314311 -103.81775904 91.15290529 -109.40136719 94.27978516 C-113.88932473 96.79908502 -118.36133938 99.34572642 -122.828125 101.90234375 C-123.43990097 102.252435 -124.05167694 102.60252625 -124.68199158 102.96322632 C-127.75260401 104.72084017 -130.82230978 106.48001529 -133.89086914 108.24121094 C-136.17162541 109.54986279 -138.45666183 110.84986688 -140.74462891 112.14599609 C-142.88307976 113.36388988 -145.01087888 114.6007175 -147.12646484 115.85791016 C-148.08891113 116.41655762 -149.05135742 116.97520508 -150.04296875 117.55078125 C-150.88239014 118.04876221 -151.72181152 118.54674316 -152.58666992 119.05981445 C-155.53104509 120.20688464 -157.02482648 119.96132082 -160 119 C-162.03515625 117.46875 -162.03515625 117.46875 -164.0625 115.5 C-168.67049851 111.18778517 -173.57123283 107.55195051 -178.69140625 103.8828125 C-179.45324219 103.26148438 -180.21507812 102.64015625 -181 102 C-181 101.34 -181 100.68 -181 100 C-180.2972998 99.61368408 -179.59459961 99.22736816 -178.87060547 98.8293457 C-165.8752026 91.67458521 -152.94569344 84.4518907 -140.20800781 76.84472656 C-133.41099665 72.79906268 -126.5374413 68.90718887 -119.625 65.0625 C-109.36968991 59.35641925 -99.21478034 53.49621447 -89.08984375 47.5625 C-82.78429535 43.86786663 -76.45702466 40.2115276 -70.125 36.5625 C-69.04629639 35.94068848 -67.96759277 35.31887695 -66.85620117 34.67822266 C-62.47423228 32.15288749 -58.09159223 29.62871825 -53.70898438 27.10449219 C-51.51887985 25.84287226 -49.32901945 24.58082845 -47.1394043 23.31835938 C-44.97790423 22.07296288 -42.81531996 20.82944607 -40.65161133 19.58789062 C-35.15820463 16.42946378 -29.69790614 13.22740124 -24.27734375 9.9453125 C-23.19146973 9.29377197 -22.1055957 8.64223145 -20.98681641 7.97094727 C-18.92538491 6.73158332 -16.87116733 5.480111 -14.82568359 4.21459961 C-5.91503499 -1.11830031 -5.91503499 -1.11830031 0 0 Z " fill="#2C3C48" transform="translate(518,290)"/>
<path d="M0 0 C3.81062872 1.89059782 7.42992116 4.03957694 11.0625 6.25 C12.11888672 6.87970703 13.17527344 7.50941406 14.26367188 8.15820312 C16.45215776 9.4634553 18.63785818 10.7733887 20.82080078 12.08789062 C25.53041211 14.92045674 30.26593373 17.70857946 35 20.5 C36.81513053 21.57417421 38.63023448 22.64839332 40.4453125 23.72265625 C49.26571818 28.9344295 58.12297136 34.0831697 66.9765625 39.23828125 C69.96485966 40.97952417 72.95147264 42.72361792 75.9375 44.46875 C95.23485923 55.74487944 114.58925992 66.92022823 134 78 C150.40499299 87.36407255 166.78667311 96.76819281 183.08447266 106.31787109 C193.47383117 112.40430788 203.92326639 118.36723982 214.45336914 124.20727539 C219.21645085 126.85395836 223.96270377 129.52614372 228.6640625 132.28125 C229.47568848 132.75626953 230.28731445 133.23128906 231.12353516 133.72070312 C233 135 233 135 234 137 C234.09380583 138.62596443 234.12373387 140.25578675 234.12304783 141.88445473 C234.12503888 142.92300531 234.12702993 143.96155589 234.12908131 145.03157771 C234.12616847 146.18136367 234.12325563 147.33114963 234.12025452 148.51577759 C234.12153615 150.33756344 234.12153615 150.33756344 234.12284368 152.19615304 C234.12421044 155.57792318 234.12106835 158.95963597 234.11606562 162.34139919 C234.11176028 165.98420653 234.11320761 169.627012 234.1139679 173.26982117 C234.11449308 179.58476814 234.11134688 185.89970482 234.10573006 192.2146492 C234.09761428 201.34507749 234.09499976 210.47550078 234.09374207 219.60593228 C234.09155167 234.4182806 234.08489192 249.23062342 234.07543945 264.04296875 C234.06626502 278.43457003 234.05918434 292.82616982 234.05493164 307.21777344 C234.05453756 308.5476918 234.05453756 308.5476918 234.05413551 309.90447719 C234.0528305 314.35220508 234.05156679 318.79993297 234.05032361 323.24766088 C234.03995138 360.16511113 234.02233339 397.08255514 234 434 C231.78102365 435.26897253 229.56193131 436.53774147 227.34277344 437.80639648 C226.72099213 438.16200401 226.09921082 438.51761154 225.45858765 438.88399506 C220.06798668 441.96536478 214.66048043 445.0161923 209.25 448.0625 C200.84458484 452.80234844 192.47579187 457.60213929 184.125 462.4375 C174.47439634 468.02336798 164.77403853 473.5122064 155.03686523 478.94555664 C145.94556868 484.02078458 136.90217673 489.17624009 127.87011719 494.35595703 C124.70955141 496.16637298 121.54641055 497.97223192 118.3828125 499.77734375 C106.84177571 506.36322516 95.3131621 512.96873244 83.8125 519.625 C75.33203835 524.53271321 66.81099442 529.3592629 58.25 534.125 C47.74004685 539.98228371 37.3592228 546.03289505 27.02636719 552.19628906 C21.7193571 555.35926022 16.40439778 558.50882599 11.08978271 561.65899658 C9.27826203 562.73324043 7.46743806 563.80865051 5.65673828 564.88427734 C4.5582959 565.53605957 3.45985352 566.1878418 2.328125 566.859375 C1.3474707 567.44170898 0.36681641 568.02404297 -0.64355469 568.62402344 C-2.07195055 569.45809296 -3.52054423 570.26027212 -5 571 C-7.26464844 569.94287109 -7.26464844 569.94287109 -10.109375 568.2734375 C-11.16294189 567.66024658 -12.21650879 567.04705566 -13.30200195 566.4152832 C-14.4514323 565.73535388 -15.60076251 565.05525524 -16.75 564.375 C-17.9321381 563.68315789 -19.1146784 562.99200257 -20.29760742 562.30151367 C-23.87150914 560.21186026 -27.43653589 558.1073892 -31 556 C-32.00434082 555.40687012 -33.00868164 554.81374023 -34.04345703 554.20263672 C-37.70492761 552.03929841 -41.36545346 549.87439835 -45.02294922 547.7043457 C-51.9656775 543.59071938 -58.9592303 539.57246845 -65.97485352 535.5847168 C-72.59703885 531.81599844 -79.17722881 527.97912618 -85.75 524.125 C-93.94877062 519.32199379 -102.19783033 514.62186638 -110.5 510 C-119.65573121 504.90236589 -128.73444777 499.68915379 -137.77392578 494.38842773 C-146.03331969 489.54974688 -154.33615862 484.78942178 -162.65240479 480.04943848 C-171.18163748 475.18789005 -179.69119529 470.29398066 -188.1875 465.375 C-196.81304665 460.38285088 -205.48106015 455.4746138 -214.1875 450.625 C-239.45270241 436.54729759 -239.45270241 436.54729759 -242 434 C-242.11853666 432.41865836 -242.16784368 430.83208686 -242.19008732 429.24646473 C-242.20687914 428.21157219 -242.22367096 427.17667965 -242.24097162 426.11042672 C-242.25442966 424.9594957 -242.26788769 423.80856468 -242.28175354 422.62275696 C-242.29954154 421.4107983 -242.31732955 420.19883964 -242.33565658 418.95015496 C-242.3837103 415.57040124 -242.42700406 412.19065118 -242.46788275 408.81080711 C-242.49452291 406.65017255 -242.5230236 404.48957046 -242.55214882 402.32896805 C-242.93184039 374.11674977 -243.15295904 345.90313103 -243.32562351 317.68896198 C-243.34792963 314.10831239 -243.37067644 310.5276659 -243.39379883 306.94702148 C-243.39952878 306.05706552 -243.40525873 305.16710955 -243.41116231 304.25018521 C-243.50639554 289.85425643 -243.6893482 275.46074618 -243.90580261 261.06618664 C-244.12624006 246.28337581 -244.2550654 231.50182315 -244.29879421 216.71742219 C-244.32855693 207.60081233 -244.42842881 198.4906225 -244.6193487 189.37594023 C-244.7434996 183.11811139 -244.77802394 176.86368553 -244.74354625 170.60473851 C-244.72624493 166.99561998 -244.74688836 163.39781995 -244.87438965 159.79066658 C-245.4627807 142.2730469 -245.4627807 142.2730469 -242 135 C-236.21086654 128.81437959 -228.65114477 125.4404989 -220.93151939 122.24810922 C-216.76814173 120.4755301 -212.90931801 118.26535431 -209 116 C-207.55103724 115.19770046 -206.1006781 114.39791347 -204.6484375 113.6015625 C-198.23367287 110.03718701 -191.91676825 106.30436545 -185.5859375 102.59375 C-177.75416902 98.00882021 -169.88548495 93.49156076 -162 89 C-153.19988755 83.98691933 -144.42627471 78.93207051 -135.6875 73.8125 C-127.99558792 69.30694728 -120.26980223 64.86985216 -112.5 60.5 C-103.68263606 55.54023278 -94.92589315 50.48496171 -86.19580078 45.37329102 C-78.77404662 41.02883492 -71.32920875 36.72599655 -63.875 32.4375 C-55.80797683 27.79225261 -47.76273097 23.11329418 -39.75 18.375 C-38.86868408 17.85655518 -37.98736816 17.33811035 -37.0793457 16.80395508 C-32.34646342 14.01267903 -27.65191097 11.17130396 -22.98828125 8.265625 C-21.50086426 7.35224365 -21.50086426 7.35224365 -19.98339844 6.42041016 C-18.08498343 5.25349742 -16.19565728 4.07162068 -14.31738281 2.87255859 C-9.16755622 -0.27025052 -6.01529519 -2.09743845 0 0 Z M-12.4375 37.25 C-18.07035577 40.84800086 -23.80638375 44.21155185 -29.625 47.5 C-37.83015265 52.15282177 -45.95938441 56.92185216 -54.0625 61.75 C-66.23847668 68.99737831 -78.51896024 76.04842231 -90.83457947 83.05513 C-96.94515284 86.53375233 -103.03627646 90.04581648 -109.125 93.5625 C-110.1862207 94.17528809 -111.24744141 94.78807617 -112.34082031 95.41943359 C-115.56078287 97.27921422 -118.78040901 99.13957621 -122 101 C-126.43707462 103.56323729 -130.87460679 106.12568028 -135.3125 108.6875 C-136.94191528 109.62843506 -136.94191528 109.62843506 -138.60424805 110.58837891 C-144.36333577 113.91148172 -150.13171407 117.21717848 -155.91259766 120.50219727 C-166.15552622 126.32487924 -176.30202437 132.30172194 -186.42700195 138.32617188 C-193.50507445 142.5343956 -200.60971023 146.68199772 -207.7890625 150.71484375 C-209.90239449 151.81706728 -209.90239449 151.81706728 -211 153 C-211.11791827 154.39877836 -211.16776111 155.80336499 -211.19008732 157.2069273 C-211.20687914 158.119901 -211.22367096 159.03287469 -211.24097162 159.97351426 C-211.25442966 160.98826209 -211.26788769 162.00300992 -211.28175354 163.04850769 C-211.29954154 164.11754202 -211.31732955 165.18657634 -211.33565658 166.28800565 C-211.3938883 169.90051968 -211.44435287 173.51309608 -211.49438477 177.12573242 C-211.53336104 179.70411851 -211.57245161 182.28250288 -211.61164856 184.86088562 C-211.96132837 208.4462907 -212.16203915 232.03339356 -212.32562351 255.62073803 C-212.34792935 258.78028356 -212.37067618 261.93982558 -212.39379883 265.09936523 C-212.39952878 265.88464969 -212.40525873 266.66993414 -212.41116231 267.47901509 C-212.50636584 280.17765087 -212.68929573 292.87354175 -212.90580261 305.57062408 C-213.12634241 318.61320073 -213.25508385 331.65435072 -213.29879421 344.69873124 C-213.3285396 352.7408858 -213.42828402 360.77575344 -213.6193487 368.81571934 C-213.75838909 374.99353028 -213.76893332 381.16567592 -213.73287773 387.34480476 C-213.73786544 389.86946323 -213.78369649 392.39443895 -213.87438965 394.91747284 C-214.34787756 406.30275158 -214.34787756 406.30275158 -211 417 C-205.0464433 422.98545637 -197.45272436 426.44839647 -189.79312789 429.76415884 C-186.25870724 431.32799075 -183.04373141 433.18750902 -179.7421875 435.19140625 C-177.78666801 436.31546901 -175.83094498 437.43917777 -173.875 438.5625 C-165.92705912 443.13604568 -158.00824499 447.75337908 -150.125 452.4375 C-141.91987646 457.30835424 -133.66320097 462.08474243 -125.375 466.8125 C-124.78737885 467.14772675 -124.19975769 467.48295349 -123.59432983 467.82833862 C-118.21793051 470.89441501 -112.83863717 473.95539646 -107.45751953 477.01318359 C-103.94964055 479.00667465 -100.4430549 481.00242499 -96.9375 483 C-96.35860016 483.32972809 -95.77970032 483.65945618 -95.18325806 483.99917603 C-86.58381381 488.9015399 -78.05913362 493.92125281 -69.5625 499 C-58.89604811 505.37184067 -48.08797424 511.43142703 -37.18798828 517.39111328 C-29.0619505 521.83741245 -21.03548432 526.41908887 -13.08984375 531.1796875 C-12.07019531 531.78039062 -11.05054688 532.38109375 -10 533 C-9.27941406 533.43570312 -8.55882812 533.87140625 -7.81640625 534.3203125 C-5.45696014 535.20320201 -4.38310605 534.74128174 -2 534 C0.62161921 532.65098294 3.18605087 531.26388237 5.75 529.8125 C6.53439453 529.37252686 7.31878906 528.93255371 8.12695312 528.47924805 C16.69751062 523.64873667 25.18239353 518.67027883 33.671875 513.69921875 C52.6228778 502.60730829 71.69697656 491.72702942 90.76855469 480.84423828 C94.63159841 478.63953654 98.49356215 476.43295005 102.35522461 474.22583008 C104.06685612 473.2475931 105.77860606 472.26956331 107.49047852 471.29174805 C111.68957669 468.89313469 115.88716555 466.49194618 120.08203125 464.0859375 C129.46187991 458.7100083 138.86970777 453.38965605 148.3125 448.125 C165.11681069 438.78083276 165.11681069 438.78083276 181.60836792 428.90136623 C184.20105477 427.44789277 186.48585188 426.39508955 189.23152161 425.35300541 C194.83017218 423.0171666 200.55600073 420.49548326 202.99113083 414.60077357 C204.64673018 407.10003828 204.29164007 399.40822755 204.16796875 391.77319336 C204.18774313 389.18530517 204.21477639 386.5974638 204.24850464 384.00971985 C204.31620221 377.72364528 204.29275689 371.44111621 204.2364397 365.15505498 C204.19248129 360.04497436 204.18267629 354.93586569 204.19699097 349.82562447 C204.19901848 349.0968825 204.201046 348.36814054 204.20313495 347.61731549 C204.20742591 346.13665415 204.21180613 344.65599307 204.21627462 343.17533226 C204.25435657 329.30904368 204.18999398 315.44470117 204.08923662 301.57882 C204.00509574 289.69264851 204.00426207 277.80889048 204.06542969 265.92260742 C204.13648369 252.10291512 204.15918359 238.28460028 204.10272312 224.46479326 C204.0968048 222.99004896 204.09093475 221.51530446 204.08511353 220.04055977 C204.08220942 219.31505094 204.07930531 218.58954212 204.0763132 217.84204818 C204.05908902 212.74029844 204.07582974 207.63931185 204.1055603 202.53764153 C204.14441646 195.66513197 204.10278134 188.7969565 204.00760269 181.9250164 C203.98459685 179.40523923 203.98701962 176.88508087 204.01687241 174.36537552 C204.71539285 162.11801454 204.71539285 162.11801454 200.50359154 151.11472631 C196.45130604 147.63473406 191.9679285 145.82677308 187 144 C185.55439036 143.19255889 184.12141192 142.35928348 182.73046875 141.4609375 C181.55005776 140.7646432 180.36906681 140.06933115 179.1875 139.375 C178.50631104 138.97442383 177.82512207 138.57384766 177.12329102 138.16113281 C169.46183442 133.66730523 161.76189241 129.24008625 154.06469727 124.80786133 C146.73591562 120.58566791 139.42496685 116.33428276 132.125 112.0625 C123.44746103 106.98710771 114.73394291 101.97741153 106 97 C96.27655752 91.45867975 86.58596991 85.86450375 76.92651367 80.2121582 C69.73864259 76.00779721 62.52996999 71.840816 55.3125 67.6875 C46.43603155 62.57869772 37.58914473 57.42264411 28.7600708 52.23254395 C23.51064172 49.14832377 18.25519821 46.07437602 13 43 C12.08750488 42.46455566 11.17500977 41.92911133 10.23486328 41.37744141 C7.97432639 40.05475371 5.70771589 38.74348151 3.4375 37.4375 C2.8192334 37.07350098 2.2009668 36.70950195 1.56396484 36.33447266 C-4.1645931 33.07446549 -7.09524114 33.75944043 -12.4375 37.25 Z " fill="#2C3C49" transform="translate(519,230)"/>
<path d="M0 0 C0.99 0.495 0.99 0.495 2 1 C2.09149228 46.92115825 2.16200655 92.84230688 2.20426132 138.76353826 C2.20926433 144.18106341 2.21444161 149.59858839 2.21972656 155.01611328 C2.2207758 156.09467597 2.22182505 157.17323866 2.22290608 158.28448507 C2.24032634 175.76406495 2.27187293 193.24359238 2.30861118 210.7231411 C2.34597555 228.64967387 2.3682263 246.5761791 2.37635398 264.5027492 C2.38185111 275.57049352 2.39923291 286.63808959 2.43166587 297.70578828 C2.45275818 305.28830515 2.45921206 312.87074503 2.45400551 320.45328912 C2.45143547 324.83251267 2.45546218 329.21147662 2.4768219 333.59065437 C2.49621891 337.59655103 2.49731504 341.60201234 2.48359558 345.6079286 C2.48189878 347.06021962 2.48703118 348.51253728 2.49953273 349.96477547 C2.51549729 351.93309973 2.50457906 353.90158788 2.49219131 355.8699379 C2.49446964 357.51260805 2.49446964 357.51260805 2.49679399 359.18846345 C1.88046448 362.67649465 0.78974262 363.87907302 -2 366 C-7.92638947 366.21852469 -12.76422668 362.43757035 -17.625 359.4375 C-19.59772211 358.24534778 -21.57174415 357.05534471 -23.546875 355.8671875 C-25.11598633 354.92117676 -25.11598633 354.92117676 -26.71679688 353.95605469 C-32.38929366 350.57651541 -38.13375769 347.32322376 -43.875 344.0625 C-52.63842111 339.07824743 -61.36925648 334.04353904 -70.0625 328.9375 C-78.61974117 323.91643926 -87.25337522 319.04677839 -95.9375 314.25 C-105.27956565 309.08834825 -114.53401195 303.81792494 -123.70458984 298.35888672 C-129.39673533 294.98912691 -135.12204545 291.67548588 -140.83862305 288.34741211 C-142.72774553 287.24670565 -144.60631467 286.12767024 -146.4734354 284.99004173 C-149.00423709 283.49775392 -151.56654759 282.29786237 -154.26735592 281.14420509 C-165.5209359 276.01247924 -165.5209359 276.01247924 -167.97119451 271.02192259 C-169.51001594 265.22138835 -169.13087616 259.26581526 -168.92993164 253.32177734 C-168.925131 251.33018406 -168.92783865 249.33856072 -168.93745422 247.34698486 C-168.94231771 241.96078967 -168.8426536 236.58107627 -168.72369695 231.19638395 C-168.61715924 225.56197544 -168.60741869 219.92740507 -168.58726501 214.29214478 C-168.53450061 203.63084335 -168.39511005 192.97251818 -168.22432369 182.31252539 C-168.03406582 170.17268022 -167.94077932 158.03269009 -167.85550129 145.89172435 C-167.67797763 120.92616836 -167.37911659 95.96325117 -167 71 C-164.44981722 70.35892964 -161.89941364 69.7187611 -159.34887695 69.07910156 C-158.63252327 68.89892487 -157.91616959 68.71874817 -157.17810822 68.53311157 C-141.16245267 64.51967393 -125.5545451 62.60677461 -109.0625 62.5 C-108.33904388 62.48964722 -107.61558777 62.47929443 -106.87020874 62.46862793 C-80.44368602 62.16987472 -57.34609305 71.92791378 -37.92578125 89.921875 C-34.99675774 92.79563392 -32.44611665 95.70344744 -30 99 C-30.00523682 97.98380081 -30.01047363 96.96760162 -30.01586914 95.92060852 C-30.06002394 86.34170266 -30.06220815 76.76358312 -30.02334595 67.18464375 C-30.00471376 62.25990524 -30.00084698 57.33607884 -30.03076172 52.41137695 C-30.05909098 47.65815424 -30.04858549 42.90645504 -30.01119995 38.15331078 C-30.00375587 36.34044906 -30.01028385 34.52747417 -30.03103638 32.71471596 C-30.18019807 18.51810681 -30.18019807 18.51810681 -27.33883667 14.86322021 C-25.25090426 13.5336152 -23.35143984 12.74958495 -21 12 C-20.07461426 11.44393066 -19.14922852 10.88786133 -18.19580078 10.31494141 C-15.51029731 8.74328472 -12.81896954 7.18209939 -10.125 5.625 C-9.17625 5.06683594 -8.2275 4.50867188 -7.25 3.93359375 C-6.34507812 3.41152344 -5.44015625 2.88945312 -4.5078125 2.3515625 C-3.28022217 1.63734131 -3.28022217 1.63734131 -2.02783203 0.90869141 C-1.35864746 0.60882324 -0.68946289 0.30895508 0 0 Z " fill="#2B3A47" transform="translate(499,363)"/>
<path d="M0 0 C3.06330806 3.06330806 4.74438289 4.9317918 6.78515625 8.515625 C7.3056958 9.42022461 7.82623535 10.32482422 8.36254883 11.25683594 C9.20402466 12.73845215 9.20402466 12.73845215 10.0625 14.25 C11.31646188 16.4278015 12.57174022 18.60484538 13.828125 20.78125 C14.16020462 21.35784363 14.49228424 21.93443726 14.83442688 22.52850342 C24.79230486 39.80012623 35.07889389 56.89079332 45.38168335 73.95837402 C46.12091904 75.18399836 46.85875786 76.41046642 47.59512329 77.63781738 C48.611193 79.33014802 49.63357371 81.01868476 50.65625 82.70703125 C51.23181641 83.6606958 51.80738281 84.61436035 52.40039062 85.59692383 C53.79288341 87.68885095 55.14561506 89.32060335 57 91 C57.20302734 90.19949219 57.20302734 90.19949219 57.41015625 89.3828125 C58.71799556 84.85627883 60.34058464 81.25175768 63.140625 77.44921875 C67.2666653 71.69140809 70.99058492 65.72736444 74.6875 59.6875 C75.03349243 59.12407898 75.37948486 58.56065796 75.73596191 57.98016357 C80.87673436 49.60425492 85.84318493 41.14019404 90.68652344 32.58862305 C94.21559079 26.35961386 97.79104688 20.16113189 101.4375 14 C101.92186523 13.16871582 102.40623047 12.33743164 102.90527344 11.48095703 C103.36836914 10.70349121 103.83146484 9.92602539 104.30859375 9.125 C104.70876709 8.44695312 105.10894043 7.76890625 105.52124023 7.0703125 C107.41314345 4.42158552 109.68420557 2.28023185 112 0 C112.56244886 16.96744739 112.98468306 33.93196182 113.24349213 50.90661812 C113.36690297 58.7900483 113.53484058 66.66766729 113.81054688 74.54736328 C114.05096183 81.42175216 114.20484964 88.29193549 114.25812387 95.17041099 C114.28925472 98.81021661 114.36137365 102.43800359 114.53752136 106.07391739 C115.56218231 128.06860619 115.56218231 128.06860619 109.67785645 134.56282806 C103.94649812 139.05429262 97.6727412 142.03795063 90.95341492 144.76124191 C86.70304684 146.54398426 82.78781829 148.80788425 78.8125 151.125 C77.36651878 151.92667802 75.91882122 152.72527512 74.46875 153.51953125 C69.55540525 156.23520334 64.68305613 159.02099955 59.8125 161.8125 C51.48204237 166.58602953 43.13683997 171.33234433 34.77172852 176.04492188 C29.68208986 178.91300613 24.60330339 181.79820129 19.5390625 184.7109375 C17.9600415 185.61501343 17.9600415 185.61501343 16.34912109 186.53735352 C14.32044649 187.69935864 12.29460539 188.86632811 10.27197266 190.03881836 C9.36237793 190.55839111 8.4527832 191.07796387 7.515625 191.61328125 C6.71415039 192.07516846 5.91267578 192.53705566 5.08691406 193.01293945 C3 194 3 194 0 194 C0 129.98 0 65.96 0 0 Z " fill="#E7F4F6" transform="translate(554,487)"/>
<path d="M0 0 C58.23249359 0 58.23249359 0 77.3125 18.6875 C88.24446052 29.93655745 94.9748356 44.77391641 95.5625 60.5625 C94.766359 77.75484222 87.92985798 92.63100615 76 105 C53.42476436 124.86127289 29.7697785 123.1494349 0 124 C0 83.08 0 42.16 0 0 Z " fill="#E7F4F6" transform="translate(363,457)"/>
<path d="M0 0 C0.33 0 0.66 0 1 0 C1 35.31 1 70.62 1 107 C-6.38632636 102.97109471 -13.691151 98.88868618 -20.9375 94.625 C-30.0304376 89.29688788 -39.15680217 84.03166081 -48.3125 78.8125 C-56.8989278 73.91764119 -65.47251647 69.00262345 -74.01464844 64.03076172 C-78.39231076 61.48948348 -82.78968361 58.98650243 -87.203125 56.5078125 C-88.25910889 55.91444092 -89.31509277 55.32106934 -90.40307617 54.7097168 C-92.47184562 53.54928117 -94.54226261 52.39177669 -96.61450195 51.23754883 C-97.54738037 50.71443115 -98.48025879 50.19131348 -99.44140625 49.65234375 C-100.68966187 48.95612915 -100.68966187 48.95612915 -101.96313477 48.24584961 C-104 47 -104 47 -106 45 C-106.1953125 42.6171875 -106.1953125 42.6171875 -106.125 39.875 C-106.10695313 38.96492187 -106.08890625 38.05484375 -106.0703125 37.1171875 C-106.04710937 36.41851563 -106.02390625 35.71984375 -106 35 C-105.36320312 35.0721875 -104.72640625 35.144375 -104.0703125 35.21875 C-71.95329692 38.28562682 -40.24198261 35.22072898 -14.125 14.625 C-9.5707313 10.71841921 -5.57680878 6.42698108 -1.6796875 1.87109375 C-1.12539063 1.25363281 -0.57109375 0.63617187 0 0 Z " fill="#E7F4F6" transform="translate(469,574)"/>
</svg>
